<?xml version="1.0" encoding="UTF-8" ?>
<!DOCTYPE svg PUBLIC "-//W3C//DTD SVG 1.1//EN" "http://www.w3.org/Graphics/SVG/1.1/DTD/svg11.dtd">
<svg width="575pt" height="481pt" viewBox="0 0 575 481" version="1.1" xmlns="http://www.w3.org/2000/svg">
<g id="#1d1d1bff">
<path fill="#1d1d1b" opacity="1.00" d=" M 457.02 41.87 C 465.51 41.90 473.93 39.76 482.43 40.83 C 480.56 42.52 478.51 44.02 476.28 45.21 C 461.58 53.19 446.91 61.23 432.20 69.21 C 418.21 76.84 401.72 78.60 388.21 87.22 C 309.73 139.78 231.16 192.20 152.65 244.70 C 147.67 248.24 142.42 252.22 140.18 258.13 C 136.70 267.38 135.62 277.27 133.70 286.91 C 131.67 297.27 129.86 307.68 128.23 318.12 C 124.72 303.54 122.74 288.66 120.20 273.90 C 119.09 266.99 117.42 260.08 117.70 253.04 C 117.95 246.43 119.12 239.87 120.73 233.47 C 121.16 231.28 123.10 229.98 124.76 228.75 C 212.49 168.47 300.24 108.23 387.95 47.93 C 389.83 46.54 392.08 45.76 394.41 45.62 C 403.56 44.75 412.79 44.98 421.93 43.93 C 429.14 43.05 436.45 43.74 443.65 42.67 C 448.07 42.00 452.55 41.93 457.02 41.87 Z" />
<path fill="#1d1d1b" opacity="1.00" d=" M 481.65 66.64 C 486.00 64.46 490.27 62.01 495.01 60.72 C 493.88 62.90 492.44 64.96 490.34 66.32 C 466.28 82.92 442.20 99.49 418.15 116.11 C 412.35 120.36 405.84 123.72 400.75 128.88 C 403.24 128.78 405.75 128.64 408.19 128.10 C 431.04 122.36 453.86 116.50 476.75 110.92 C 466.96 132.60 455.08 153.29 442.48 173.45 C 427.20 197.46 409.56 220.25 387.94 238.90 C 376.76 248.28 365.28 257.47 352.36 264.38 C 332.24 275.73 309.03 280.94 286.02 280.91 C 268.17 281.98 250.06 281.52 232.60 277.34 C 228.96 276.39 225.14 275.85 221.80 274.04 C 229.24 272.94 236.61 274.98 244.04 275.20 C 261.87 275.80 279.89 276.03 297.49 272.61 C 316.79 269.23 335.92 262.58 351.68 250.67 C 374.70 232.83 395.02 211.44 411.25 187.22 C 420.70 172.75 429.29 157.42 434.23 140.77 C 403.61 146.41 373.26 153.43 342.71 159.47 C 331.49 161.61 320.44 164.80 309.03 165.88 C 326.22 149.98 345.10 135.67 366.02 125.02 C 404.56 105.55 443.13 86.16 481.65 66.64 Z" />
<path fill="#1d1d1b" opacity="1.00" d=" M 344.02 175.24 C 361.19 172.78 378.18 169.14 395.42 167.18 C 389.44 180.98 379.92 192.85 370.21 204.19 C 342.30 237.02 301.29 259.10 258.09 262.08 C 247.88 263.84 237.44 262.78 227.38 260.64 C 217.70 258.41 209.31 252.86 200.22 249.11 C 186.89 258.58 174.98 270.03 164.86 282.88 C 158.60 290.86 153.77 299.81 148.27 308.31 C 146.31 311.37 144.15 314.33 142.55 317.61 C 141.63 319.31 141.01 321.46 138.99 322.19 C 148.02 303.57 155.70 284.31 164.79 265.72 C 168.45 258.18 171.77 249.96 178.57 244.64 C 196.13 231.05 213.47 216.99 232.72 205.80 C 245.76 198.21 259.81 192.38 274.35 188.34 C 297.22 182.23 320.80 179.62 344.02 175.24 M 282.61 205.55 C 279.36 209.92 276.91 215.13 272.18 218.19 C 267.93 221.50 262.21 221.02 257.17 220.64 C 252.47 220.18 249.89 215.69 247.57 212.13 C 243.65 212.65 239.78 213.50 235.91 214.34 C 236.63 218.72 237.77 223.11 240.05 226.96 C 245.79 236.47 258.30 241.39 268.94 238.02 C 283.68 233.13 294.51 218.32 294.48 202.75 C 290.47 203.22 286.12 203.30 282.61 205.55 Z" />
<path fill="#1d1d1b" opacity="1.00" d=" M 427.70 217.73 C 432.58 214.75 438.55 214.89 444.07 215.00 C 451.28 215.25 458.88 217.68 463.57 223.43 C 468.07 228.88 469.78 236.06 470.07 242.99 C 470.29 249.30 470.61 255.74 469.13 261.94 C 464.87 278.10 456.38 292.90 445.54 305.54 C 433.18 319.87 419.38 333.16 403.43 343.47 C 385.84 355.14 365.85 363.08 345.11 366.96 C 330.88 369.39 316.34 369.12 301.98 368.15 C 278.16 365.73 255.15 354.77 238.71 337.29 C 233.11 331.39 228.70 324.52 224.13 317.83 C 217.30 307.40 210.54 296.80 205.62 285.31 C 227.66 291.39 249.98 297.62 273.00 298.02 C 299.49 299.10 325.24 291.44 350.10 283.17 C 331.88 297.26 308.89 303.43 286.44 306.64 C 271.15 307.99 255.70 307.91 240.47 305.94 C 244.91 321.65 257.41 333.71 271.06 341.91 C 283.86 348.86 298.38 352.79 312.98 352.65 C 342.94 353.72 373.56 345.62 398.00 328.00 C 414.59 315.76 429.10 300.54 439.87 282.91 C 446.09 272.03 451.00 259.77 450.43 247.02 C 450.33 240.22 447.07 233.45 441.56 229.41 C 437.86 226.59 432.57 226.52 428.47 228.47 C 424.91 230.15 422.99 234.17 423.15 237.99 C 423.04 242.39 425.46 246.22 427.08 250.15 C 422.26 246.57 417.70 241.41 417.91 235.03 C 417.21 227.90 421.65 221.17 427.70 217.73 Z" />
<path fill="#1d1d1b" opacity="1.00" d=" M 50.36 217.74 C 61.50 227.18 71.73 237.65 82.38 247.63 C 86.29 251.10 89.39 255.97 94.76 257.30 C 95.29 251.72 96.12 246.18 97.27 240.70 C 101.03 244.31 104.13 248.53 107.38 252.59 C 109.34 254.96 110.49 257.90 110.81 260.95 C 111.86 271.32 113.67 281.60 114.83 291.96 C 115.76 299.33 117.20 306.70 116.78 314.18 C 106.03 299.33 97.27 283.16 86.95 268.03 C 81.74 261.01 75.17 255.16 69.57 248.47 C 63.79 241.92 57.75 235.59 51.97 229.04 C 49.12 225.96 50.33 221.49 50.36 217.74 Z" />
<path fill="#1d1d1b" opacity="1.00" d=" M 187.25 301.40 C 188.09 296.87 188.38 292.20 189.87 287.81 C 191.35 305.85 193.25 323.89 196.10 341.78 C 197.61 352.07 199.76 362.28 202.85 372.22 C 204.12 375.62 202.10 378.93 201.08 382.10 C 196.27 394.13 192.79 406.60 189.53 419.11 C 184.90 405.68 180.70 392.08 174.95 379.08 C 172.23 373.73 175.99 368.19 176.91 362.87 C 181.40 342.57 184.28 321.96 187.25 301.40 Z" />
</g>
</svg>
